<svg id="Layer_1" data-name="Layer 1" xmlns="http://www.w3.org/2000/svg" xmlns:xlink="http://www.w3.org/1999/xlink" viewBox="0 0 308.92 565.79"><defs><style>.cls-1,.cls-27,.cls-28,.cls-3{fill:none;}.cls-2{fill:#bc395e;}.cls-24,.cls-27,.cls-3{stroke:#000;}.cls-24,.cls-3{stroke-miterlimit:10;}.cls-4{clip-path:url(#clip-path);}.cls-5{clip-path:url(#clip-path-2);}.cls-6{clip-path:url(#clip-path-4);}.cls-7{clip-path:url(#clip-path-7);}.cls-11,.cls-8{font-size:35.39px;}.cls-11,.cls-22,.cls-8{font-family:Calibri;}.cls-11,.cls-9{letter-spacing:0em;}.cls-10{clip-path:url(#clip-path-8);}.cls-12{letter-spacing:0em;}.cls-13{clip-path:url(#clip-path-9);}.cls-14{clip-path:url(#clip-path-10);}.cls-15{clip-path:url(#clip-path-11);}.cls-16{clip-path:url(#clip-path-12);}.cls-17{clip-path:url(#clip-path-13);}.cls-18{clip-path:url(#clip-path-14);}.cls-19{clip-path:url(#clip-path-15);}.cls-20{clip-path:url(#clip-path-16);}.cls-21{clip-path:url(#clip-path-17);}.cls-22,.cls-24{font-size:44.43px;}.cls-23{clip-path:url(#clip-path-21);}.cls-24,.cls-29{fill:#fff;}.cls-24{font-family:Calibri-BoldItalic, Calibri;font-weight:700;font-style:italic;}.cls-25{letter-spacing:0em;}.cls-26{clip-path:url(#clip-path-22);}.cls-27,.cls-28{stroke-linecap:square;stroke-linejoin:round;stroke-width:0.25px;}.cls-28{stroke:#fff;}</style><clipPath id="clip-path" transform="translate(11.42 3.77)"><rect class="cls-1" x="-57" y="-121" width="685" height="1756"/></clipPath><clipPath id="clip-path-2" transform="translate(11.42 3.77)"><rect class="cls-2" x="1.2" y="0.94" width="286.54" height="560.94"/></clipPath><clipPath id="clip-path-4" transform="translate(11.42 3.77)"><rect class="cls-1" x="1.2" y="0.94" width="286.54" height="560.94"/></clipPath><clipPath id="clip-path-7" transform="translate(11.42 3.77)"><rect class="cls-1" x="1.2" y="56.37" width="286.54" height="42.13"/></clipPath><clipPath id="clip-path-8" transform="translate(11.42 3.77)"><rect class="cls-1" x="1.2" y="100.72" width="286.54" height="42.13"/></clipPath><clipPath id="clip-path-9" transform="translate(11.42 3.77)"><rect class="cls-1" x="1.2" y="147.28" width="286.54" height="42.13"/></clipPath><clipPath id="clip-path-10" transform="translate(11.42 3.77)"><rect class="cls-1" x="1.2" y="191.62" width="286.54" height="42.13"/></clipPath><clipPath id="clip-path-11" transform="translate(11.42 3.77)"><rect class="cls-1" x="1.2" y="235.96" width="286.54" height="42.13"/></clipPath><clipPath id="clip-path-12" transform="translate(11.42 3.77)"><rect class="cls-1" x="1.2" y="280.31" width="286.54" height="42.13"/></clipPath><clipPath id="clip-path-13" transform="translate(11.42 3.77)"><rect class="cls-1" x="1.2" y="326.87" width="286.54" height="42.13"/></clipPath><clipPath id="clip-path-14" transform="translate(11.42 3.77)"><rect class="cls-1" x="1.2" y="371.21" width="286.54" height="42.13"/></clipPath><clipPath id="clip-path-15" transform="translate(11.42 3.77)"><rect class="cls-1" x="1.2" y="415.56" width="286.54" height="42.13"/></clipPath><clipPath id="clip-path-16" transform="translate(11.42 3.77)"><rect class="cls-1" x="1.2" y="462.12" width="286.54" height="42.13"/></clipPath><clipPath id="clip-path-17" transform="translate(11.42 3.77)"><rect class="cls-1" x="1.2" y="506.46" width="286.54" height="53.21"/></clipPath><clipPath id="clip-path-21" transform="translate(11.42 3.77)"><rect class="cls-3" x="-10.92" y="-3.27" width="307.92" height="55.43"/></clipPath><clipPath id="clip-path-22" transform="translate(11.42 3.77)"><rect class="cls-1" x="-1.04" y="-3.49" width="291.01" height="569.81"/></clipPath></defs><g class="cls-4"><rect class="cls-2" x="12.62" y="4.72" width="286.54" height="560.94"/><g class="cls-5"><rect class="cls-2" x="11.5" y="2.5" width="286.54" height="281.58"/></g><rect class="cls-2" x="12.62" y="4.72" width="286.54" height="560.94"/><g class="cls-5"><rect class="cls-2" x="11.5" y="284.08" width="58.2" height="135.25"/></g><rect x="68.58" y="284.08" width="58.2" height="135.25"/><rect class="cls-2" x="126.79" y="284.08" width="171.25" height="135.25"/><g class="cls-6"><rect class="cls-2" x="11.5" y="419.33" width="58.2" height="44.34"/></g><rect x="68.58" y="419.33" width="173.49" height="44.34"/><rect class="cls-2" x="242.07" y="419.33" width="55.96" height="44.34"/><g class="cls-6"><rect class="cls-2" x="11.5" y="463.67" width="58.2" height="44.34"/></g><rect x="68.58" y="463.67" width="229.45" height="44.34"/><g class="cls-6"><rect class="cls-2" x="11.5" y="508.02" width="286.54" height="55.43"/></g><g class="cls-7"><text class="cls-8" transform="translate(26.57 91.95) scale(0.5 1)"><tspan class="cls-9">100</tspan><tspan x="53.49" y="0">%</tspan></text></g><g class="cls-10"><text class="cls-11" transform="translate(35.57 136.91) scale(0.5 1)">90<tspan class="cls-12" x="35.66" y="0">%</tspan></text></g><g class="cls-13"><text class="cls-11" transform="translate(35.57 181.92) scale(0.5 1)">80<tspan class="cls-12" x="35.66" y="0">%</tspan></text></g><g class="cls-14"><text class="cls-11" transform="translate(35.57 226.89) scale(0.5 1)">70<tspan class="cls-12" x="35.66" y="0">%</tspan></text></g><g class="cls-15"><text class="cls-11" transform="translate(35.57 271.85) scale(0.5 1)">60<tspan class="cls-12" x="35.66" y="0">%</tspan></text></g><g class="cls-16"><text class="cls-11" transform="translate(35.57 316.81) scale(0.5 1)">50<tspan class="cls-12" x="35.66" y="0">%</tspan></text></g><g class="cls-17"><text class="cls-11" transform="translate(35.57 361.78) scale(0.5 1)">40<tspan class="cls-12" x="35.66" y="0">%</tspan></text></g><g class="cls-18"><text class="cls-11" transform="translate(35.57 406.74) scale(0.5 1)">30<tspan class="cls-12" x="35.66" y="0">%</tspan></text></g><g class="cls-19"><text class="cls-11" transform="translate(35.57 451.71) scale(0.5 1)">20<tspan class="cls-12" x="35.66" y="0">%</tspan></text></g><g class="cls-20"><text class="cls-11" transform="translate(35.57 496.74) scale(0.5 1)">10<tspan class="cls-12" x="35.66" y="0">%</tspan></text></g><g class="cls-21"><text class="cls-22" transform="translate(91.98 551.28) scale(0.5 1)">A</text></g><g class="cls-21"><text class="cls-22" transform="translate(150.17 551.28) scale(0.5 1)">B</text></g><g class="cls-21"><text class="cls-22" transform="translate(208.06 551.28) scale(0.5 1)">C</text></g><g class="cls-21"><text class="cls-22" transform="translate(263.93 551.28) scale(0.5 1)">D</text></g><g class="cls-23"><text class="cls-24" transform="translate(65.27 43.39) scale(0.61 1)">Ask The<tspan class="cls-25" x="143.06" y="0"> </tspan><tspan x="153.19" y="0">Audience</tspan></text></g><rect class="cls-3" x="0.5" y="0.5" width="307.92" height="55.43"/><g class="cls-26"><line class="cls-27" x1="11.5" y1="281.86" x2="69.7" y2="281.86"/><rect x="11.5" y="281.86" width="58.2" height="2.22"/><line class="cls-27" x1="11.5" y1="328.42" x2="69.7" y2="328.42"/><rect x="11.5" y="328.42" width="58.2" height="2.22"/><line class="cls-27" x1="11.5" y1="372.77" x2="69.7" y2="372.77"/><rect x="11.5" y="372.77" width="58.2" height="2.22"/><line class="cls-27" x1="11.5" y1="417.11" x2="69.7" y2="417.11"/><rect x="11.5" y="417.11" width="58.2" height="2.22"/><line class="cls-27" x1="11.5" y1="461.45" x2="69.7" y2="461.45"/><rect x="11.5" y="461.45" width="58.2" height="2.22"/><line class="cls-27" x1="298.04" y1="4.72" x2="298.04" y2="60.15"/><rect x="298.04" y="4.72" width="1.12" height="55.43"/><line class="cls-28" x1="126.79" y1="284.08" x2="126.79" y2="508.02"/><rect class="cls-29" x="126.79" y="284.08" width="1.12" height="221.72"/><line class="cls-28" x1="183.87" y1="419.33" x2="183.87" y2="508.02"/><rect class="cls-29" x="183.87" y="419.33" width="1.12" height="88.69"/><line class="cls-28" x1="242.07" y1="419.33" x2="242.07" y2="508.02"/><rect class="cls-29" x="242.07" y="419.33" width="1.12" height="88.69"/><line class="cls-28" x1="298.04" y1="463.67" x2="298.04" y2="508.02"/><rect class="cls-29" x="298.04" y="465.89" width="1.12" height="42.13"/><line class="cls-27" x1="10.38" y1="2.5" x2="10.38" y2="510.23"/><rect x="10.38" y="2.5" width="1.12" height="507.73"/><line class="cls-27" x1="298.04" y1="510.23" x2="298.04" y2="565.66"/><rect x="298.04" y="510.23" width="1.12" height="55.43"/><line class="cls-27" x1="68.58" y1="60.15" x2="68.58" y2="565.66"/><rect x="68.58" y="60.15" width="1.12" height="505.52"/><line class="cls-27" x1="126.79" y1="510.23" x2="126.79" y2="565.66"/><rect x="126.79" y="510.23" width="1.12" height="55.43"/><line class="cls-27" x1="183.87" y1="510.23" x2="183.87" y2="565.66"/><rect x="183.87" y="510.23" width="1.12" height="55.43"/><line class="cls-27" x1="242.07" y1="510.23" x2="242.07" y2="565.66"/><rect x="242.07" y="510.23" width="1.12" height="55.43"/><line class="cls-27" x1="11.5" y1="2.5" x2="299.16" y2="2.5"/><rect x="12.62" y="2.5" width="286.54" height="2.22"/><line class="cls-27" x1="11.5" y1="57.93" x2="299.16" y2="57.93"/><rect x="12.62" y="57.93" width="286.54" height="2.22"/><line class="cls-27" x1="11.5" y1="102.27" x2="69.7" y2="102.27"/><rect x="11.5" y="102.27" width="58.2" height="2.22"/><line class="cls-27" x1="11.5" y1="146.62" x2="69.7" y2="146.62"/><rect x="11.5" y="146.62" width="58.2" height="2.22"/><line class="cls-27" x1="11.5" y1="193.18" x2="69.7" y2="193.18"/><rect x="11.5" y="193.18" width="58.2" height="2.22"/><line class="cls-27" x1="11.5" y1="237.52" x2="69.7" y2="237.52"/><rect x="11.5" y="237.52" width="58.2" height="2.22"/><line class="cls-28" x1="69.7" y1="281.86" x2="127.91" y2="281.86"/><rect class="cls-29" x="69.7" y="281.86" width="58.2" height="2.22"/><line class="cls-28" x1="69.7" y1="328.42" x2="127.91" y2="328.42"/><rect class="cls-29" x="69.7" y="328.42" width="58.2" height="2.22"/><line class="cls-28" x1="69.7" y1="372.77" x2="127.91" y2="372.77"/><rect class="cls-29" x="69.7" y="372.77" width="58.2" height="2.22"/><line class="cls-28" x1="69.7" y1="417.11" x2="243.19" y2="417.11"/><rect class="cls-29" x="69.7" y="417.11" width="173.49" height="2.22"/><line class="cls-28" x1="69.7" y1="461.45" x2="299.16" y2="461.45"/><rect class="cls-29" x="69.7" y="461.45" width="229.45" height="2.22"/><line class="cls-27" x1="11.5" y1="508.02" x2="299.16" y2="508.02"/><rect x="12.62" y="508.02" width="286.54" height="2.22"/><line class="cls-27" x1="69.7" y1="563.44" x2="299.16" y2="563.44"/><rect x="69.7" y="563.44" width="229.45" height="2.22"/></g></g></svg>