<svg id="Layer_1" data-name="Layer 1" xmlns="http://www.w3.org/2000/svg" xmlns:xlink="http://www.w3.org/1999/xlink" viewBox="0 0 289.03 563.42"><defs><style>.cls-1,.cls-25,.cls-26{fill:none;}.cls-2{clip-path:url(#clip-path);}.cls-3{clip-path:url(#clip-path-2);}.cls-4{fill:#00b0f0;}.cls-5{clip-path:url(#clip-path-7);}.cls-6{font-size:35.39px;letter-spacing:0em;}.cls-19,.cls-6{font-family:Calibri;}.cls-7{letter-spacing:0em;}.cls-8{clip-path:url(#clip-path-8);}.cls-9{letter-spacing:0em;}.cls-10{clip-path:url(#clip-path-9);}.cls-11{clip-path:url(#clip-path-10);}.cls-12{clip-path:url(#clip-path-11);}.cls-13{clip-path:url(#clip-path-12);}.cls-14{clip-path:url(#clip-path-13);}.cls-15{clip-path:url(#clip-path-14);}.cls-16{clip-path:url(#clip-path-15);}.cls-17{clip-path:url(#clip-path-16);}.cls-18{clip-path:url(#clip-path-17);}.cls-19,.cls-21{font-size:44.43px;}.cls-20{clip-path:url(#clip-path-21);}.cls-21,.cls-27{fill:#fff;}.cls-21{font-family:Calibri-BoldItalic, Calibri;font-weight:700;font-style:italic;}.cls-22{letter-spacing:0em;}.cls-23{letter-spacing:0em;}.cls-24{clip-path:url(#clip-path-22);}.cls-25{stroke:#000;}.cls-25,.cls-26{stroke-linecap:square;stroke-linejoin:round;stroke-width:0.25px;}.cls-26{stroke:#fff;}</style><clipPath id="clip-path" transform="translate(0.16 -0.6)"><rect class="cls-1" x="-56" y="-119" width="685" height="1756"/></clipPath><clipPath id="clip-path-2" transform="translate(0.16 -0.6)"><rect class="cls-1" x="2.2" y="2.94" width="286.54" height="560.94"/></clipPath><clipPath id="clip-path-7" transform="translate(0.16 -0.6)"><rect class="cls-1" x="2.2" y="58.37" width="286.54" height="42.13"/></clipPath><clipPath id="clip-path-8" transform="translate(0.16 -0.6)"><rect class="cls-1" x="2.2" y="102.72" width="286.54" height="42.13"/></clipPath><clipPath id="clip-path-9" transform="translate(0.16 -0.6)"><rect class="cls-1" x="2.2" y="149.28" width="286.54" height="42.13"/></clipPath><clipPath id="clip-path-10" transform="translate(0.16 -0.6)"><rect class="cls-1" x="2.2" y="193.62" width="286.54" height="42.13"/></clipPath><clipPath id="clip-path-11" transform="translate(0.16 -0.6)"><rect class="cls-1" x="2.2" y="237.96" width="286.54" height="42.13"/></clipPath><clipPath id="clip-path-12" transform="translate(0.16 -0.6)"><rect class="cls-1" x="2.2" y="282.31" width="286.54" height="42.13"/></clipPath><clipPath id="clip-path-13" transform="translate(0.16 -0.6)"><rect class="cls-1" x="2.2" y="328.87" width="286.54" height="42.13"/></clipPath><clipPath id="clip-path-14" transform="translate(0.16 -0.6)"><rect class="cls-1" x="2.2" y="373.21" width="286.54" height="42.13"/></clipPath><clipPath id="clip-path-15" transform="translate(0.16 -0.6)"><rect class="cls-1" x="2.2" y="417.56" width="286.54" height="42.13"/></clipPath><clipPath id="clip-path-16" transform="translate(0.16 -0.6)"><rect class="cls-1" x="2.2" y="464.12" width="286.54" height="42.13"/></clipPath><clipPath id="clip-path-17" transform="translate(0.16 -0.6)"><rect class="cls-1" x="2.2" y="508.46" width="286.54" height="53.21"/></clipPath><clipPath id="clip-path-21" transform="translate(0.16 -0.6)"><rect class="cls-1" x="1.08" y="0.73" width="286.54" height="55.43"/></clipPath><clipPath id="clip-path-22" transform="translate(0.16 -0.6)"><rect class="cls-1" x="-0.04" y="-1.49" width="291.01" height="569.81"/></clipPath></defs><g class="cls-2"><g class="cls-3"><rect class="cls-4" x="1.25" y="0.13" width="286.54" height="281.58"/></g><g class="cls-3"><rect class="cls-4" x="1.25" y="281.71" width="58.2" height="135.25"/></g><rect x="58.33" y="281.71" width="58.2" height="135.25"/><rect class="cls-4" x="116.53" y="281.71" width="171.25" height="135.25"/><g class="cls-3"><rect class="cls-4" x="1.25" y="416.96" width="58.2" height="44.34"/></g><rect x="58.33" y="416.96" width="173.49" height="44.34"/><rect class="cls-4" x="231.82" y="416.96" width="55.96" height="44.34"/><g class="cls-3"><rect class="cls-4" x="1.25" y="461.3" width="58.2" height="44.34"/></g><rect x="58.33" y="461.3" width="229.45" height="44.34"/><g class="cls-3"><rect class="cls-4" x="1.25" y="505.64" width="286.54" height="55.43"/></g><g class="cls-5"><text class="cls-6" transform="translate(16.31 89.58) scale(0.5 1)">100<tspan class="cls-7" x="53.49" y="0">%</tspan></text></g><g class="cls-8"><text class="cls-6" transform="translate(25.32 134.54) scale(0.5 1)">90<tspan class="cls-9" x="35.66" y="0">%</tspan></text></g><g class="cls-10"><text class="cls-6" transform="translate(25.32 179.55) scale(0.5 1)">80<tspan class="cls-9" x="35.66" y="0">%</tspan></text></g><g class="cls-11"><text class="cls-6" transform="translate(25.32 224.51) scale(0.5 1)">70<tspan class="cls-9" x="35.66" y="0">%</tspan></text></g><g class="cls-12"><text class="cls-6" transform="translate(25.32 269.48) scale(0.5 1)">60<tspan class="cls-9" x="35.66" y="0">%</tspan></text></g><g class="cls-13"><text class="cls-6" transform="translate(25.32 314.44) scale(0.5 1)">50<tspan class="cls-9" x="35.66" y="0">%</tspan></text></g><g class="cls-14"><text class="cls-6" transform="translate(25.32 359.41) scale(0.5 1)">40<tspan class="cls-9" x="35.66" y="0">%</tspan></text></g><g class="cls-15"><text class="cls-6" transform="translate(25.32 404.37) scale(0.5 1)">30<tspan class="cls-9" x="35.66" y="0">%</tspan></text></g><g class="cls-16"><text class="cls-6" transform="translate(25.32 449.33) scale(0.5 1)">20<tspan class="cls-9" x="35.66" y="0">%</tspan></text></g><g class="cls-17"><text class="cls-6" transform="translate(25.32 494.36) scale(0.5 1)">10<tspan class="cls-9" x="35.66" y="0">%</tspan></text></g><g class="cls-18"><text class="cls-19" transform="translate(81.72 548.91) scale(0.5 1)">A</text></g><g class="cls-18"><text class="cls-19" transform="translate(139.92 548.91) scale(0.5 1)">B</text></g><g class="cls-18"><text class="cls-19" transform="translate(197.8 548.91) scale(0.5 1)">C</text></g><g class="cls-18"><text class="cls-19" transform="translate(253.68 548.91) scale(0.5 1)">D</text></g><g class="cls-20"><text class="cls-21" transform="translate(61.44 43.02) scale(0.5 1)">Ask The<tspan class="cls-22" x="143.06" y="0"> </tspan><tspan class="cls-23" x="153.19" y="0">Audience</tspan></text></g><g class="cls-24"><line class="cls-25" x1="1.25" y1="279.49" x2="59.45" y2="279.49"/><rect x="1.25" y="279.49" width="58.2" height="2.22"/><line class="cls-25" x1="1.25" y1="326.05" x2="59.45" y2="326.05"/><rect x="1.25" y="326.05" width="58.2" height="2.22"/><line class="cls-25" x1="1.25" y1="370.39" x2="59.45" y2="370.39"/><rect x="1.25" y="370.39" width="58.2" height="2.22"/><line class="cls-25" x1="1.25" y1="414.74" x2="59.45" y2="414.74"/><rect x="1.25" y="414.74" width="58.2" height="2.22"/><line class="cls-25" x1="1.25" y1="459.08" x2="59.45" y2="459.08"/><rect x="1.25" y="459.08" width="58.2" height="2.22"/><line class="cls-25" x1="287.78" y1="2.34" x2="287.78" y2="57.77"/><rect x="287.78" y="2.34" width="1.12" height="55.43"/><line class="cls-26" x1="116.53" y1="281.71" x2="116.53" y2="505.64"/><rect class="cls-27" x="116.53" y="281.71" width="1.12" height="221.72"/><line class="cls-26" x1="173.62" y1="416.96" x2="173.62" y2="505.64"/><rect class="cls-27" x="173.62" y="416.96" width="1.12" height="88.69"/><line class="cls-26" x1="231.82" y1="416.96" x2="231.82" y2="505.64"/><rect class="cls-27" x="231.82" y="416.96" width="1.12" height="88.69"/><line class="cls-26" x1="287.78" y1="461.3" x2="287.78" y2="505.64"/><rect class="cls-27" x="287.78" y="463.52" width="1.12" height="42.13"/><line class="cls-25" x1="0.13" y1="0.13" x2="0.13" y2="507.86"/><rect x="0.13" y="0.13" width="1.12" height="507.73"/><line class="cls-25" x1="287.78" y1="507.86" x2="287.78" y2="563.29"/><rect x="287.78" y="507.86" width="1.12" height="55.43"/><line class="cls-25" x1="58.33" y1="57.77" x2="58.33" y2="563.29"/><rect x="58.33" y="57.77" width="1.12" height="505.52"/><line class="cls-25" x1="116.53" y1="507.86" x2="116.53" y2="563.29"/><rect x="116.53" y="507.86" width="1.12" height="55.43"/><line class="cls-25" x1="173.62" y1="507.86" x2="173.62" y2="563.29"/><rect x="173.62" y="507.86" width="1.12" height="55.43"/><line class="cls-25" x1="231.82" y1="507.86" x2="231.82" y2="563.29"/><rect x="231.82" y="507.86" width="1.12" height="55.43"/><line class="cls-25" x1="1.25" y1="0.13" x2="288.9" y2="0.13"/><rect x="2.37" y="0.13" width="286.54" height="2.22"/><line class="cls-25" x1="1.25" y1="55.56" x2="288.9" y2="55.56"/><rect x="2.37" y="55.56" width="286.54" height="2.22"/><line class="cls-25" x1="1.25" y1="99.9" x2="59.45" y2="99.9"/><rect x="1.25" y="99.9" width="58.2" height="2.22"/><line class="cls-25" x1="1.25" y1="144.24" x2="59.45" y2="144.24"/><rect x="1.25" y="144.24" width="58.2" height="2.22"/><line class="cls-25" x1="1.25" y1="190.8" x2="59.45" y2="190.8"/><rect x="1.25" y="190.8" width="58.2" height="2.22"/><line class="cls-25" x1="1.25" y1="235.15" x2="59.45" y2="235.15"/><rect x="1.25" y="235.15" width="58.2" height="2.22"/><line class="cls-26" x1="59.45" y1="279.49" x2="117.65" y2="279.49"/><rect class="cls-27" x="59.45" y="279.49" width="58.2" height="2.22"/><line class="cls-26" x1="59.45" y1="326.05" x2="117.65" y2="326.05"/><rect class="cls-27" x="59.45" y="326.05" width="58.2" height="2.22"/><line class="cls-26" x1="59.45" y1="370.39" x2="117.65" y2="370.39"/><rect class="cls-27" x="59.45" y="370.39" width="58.2" height="2.22"/><line class="cls-26" x1="59.45" y1="414.74" x2="232.94" y2="414.74"/><rect class="cls-27" x="59.45" y="414.74" width="173.49" height="2.22"/><line class="cls-26" x1="59.45" y1="459.08" x2="288.9" y2="459.08"/><rect class="cls-27" x="59.45" y="459.08" width="229.45" height="2.22"/><line class="cls-25" x1="1.25" y1="505.64" x2="288.9" y2="505.64"/><rect x="2.37" y="505.64" width="286.54" height="2.22"/><line class="cls-25" x1="59.45" y1="561.07" x2="288.9" y2="561.07"/><rect x="59.45" y="561.07" width="229.45" height="2.22"/></g></g></svg>