<?xml version="1.0" encoding="utf-8"?>
<!-- Generator: Adobe Illustrator 25.0.1, SVG Export Plug-In . SVG Version: 6.00 Build 0)  -->
<svg version="1.1" id="Layer_1" xmlns="http://www.w3.org/2000/svg" xmlns:xlink="http://www.w3.org/1999/xlink" x="0px" y="0px"
	 viewBox="0 0 250 356" style="enable-background:new 0 0 250 356;" xml:space="preserve">
<style type="text/css">
	.st0{clip-path:url(#SVGID_2_);}
	.st1{clip-path:url(#SVGID_4_);}
	.st2{fill:#00B0F0;}
	.st3{clip-path:url(#SVGID_6_);}
	.st4{clip-path:url(#SVGID_8_);}
	.st5{clip-path:url(#SVGID_10_);}
	.st6{clip-path:url(#SVGID_12_);}
	.st7{clip-path:url(#SVGID_14_);}
	.st8{font-family:'Calibri';}
	.st9{font-size:22.8739px;}
	.st10{clip-path:url(#SVGID_16_);}
	.st11{clip-path:url(#SVGID_18_);}
	.st12{clip-path:url(#SVGID_20_);}
	.st13{clip-path:url(#SVGID_22_);}
	.st14{clip-path:url(#SVGID_24_);}
	.st15{clip-path:url(#SVGID_26_);}
	.st16{clip-path:url(#SVGID_28_);}
	.st17{clip-path:url(#SVGID_30_);}
	.st18{clip-path:url(#SVGID_32_);}
	.st19{clip-path:url(#SVGID_34_);}
	.st20{font-size:28.7168px;}
	.st21{clip-path:url(#SVGID_36_);}
	.st22{clip-path:url(#SVGID_38_);}
	.st23{clip-path:url(#SVGID_40_);}
	.st24{clip-path:url(#SVGID_42_);}
	.st25{fill:#FFFFFF;}
	.st26{font-family:'Calibri-BoldItalic';}
	.st27{clip-path:url(#SVGID_44_);}
	.st28{fill:none;stroke:#000000;stroke-width:0.1887;stroke-linecap:square;stroke-linejoin:round;}
	.st29{fill:none;stroke:#FFFFFF;stroke-width:0.1887;stroke-linecap:square;stroke-linejoin:round;}
</style>
<g>
	<defs>
		<rect id="SVGID_1_" x="-74" y="-228.3" width="685" height="1756"/>
	</defs>
	<clipPath id="SVGID_2_">
		<use xlink:href="#SVGID_1_"  style="overflow:visible;"/>
	</clipPath>
	<g class="st0">
		<g>
			<defs>
				<rect id="SVGID_3_" x="1.1" y="-1.9" width="252.4" height="362.1"/>
			</defs>
			<clipPath id="SVGID_4_">
				<use xlink:href="#SVGID_3_"  style="overflow:visible;"/>
			</clipPath>
			<g class="st1">
				<rect x="0" y="-2.9" class="st2" width="252.4" height="182.1"/>
			</g>
		</g>
		<g>
			<defs>
				<rect id="SVGID_5_" x="1.1" y="-1.9" width="252.4" height="362.1"/>
			</defs>
			<clipPath id="SVGID_6_">
				<use xlink:href="#SVGID_5_"  style="overflow:visible;"/>
			</clipPath>
			<g class="st3">
				<rect x="0" y="178.1" class="st2" width="51.3" height="87.9"/>
			</g>
		</g>
		<rect x="50.3" y="178.1" width="51.3" height="87.9"/>
		<rect x="101.6" y="178.1" class="st2" width="150.8" height="87.9"/>
		<g>
			<defs>
				<rect id="SVGID_7_" x="1.1" y="-1.9" width="252.4" height="362.1"/>
			</defs>
			<clipPath id="SVGID_8_">
				<use xlink:href="#SVGID_7_"  style="overflow:visible;"/>
			</clipPath>
			<g class="st4">
				<rect x="0" y="266" class="st2" width="51.3" height="29"/>
			</g>
		</g>
		<rect x="50.3" y="266" width="152.9" height="29"/>
		<rect x="203.2" y="266" class="st2" width="49.2" height="29"/>
		<g>
			<defs>
				<rect id="SVGID_9_" x="1.1" y="-1.9" width="252.4" height="362.1"/>
			</defs>
			<clipPath id="SVGID_10_">
				<use xlink:href="#SVGID_9_"  style="overflow:visible;"/>
			</clipPath>
			<g class="st5">
				<rect x="0" y="295" class="st2" width="51.3" height="29"/>
			</g>
		</g>
		<rect x="50.3" y="295" width="202.1" height="29"/>
		<g>
			<defs>
				<rect id="SVGID_11_" x="1.1" y="-1.9" width="252.4" height="362.1"/>
			</defs>
			<clipPath id="SVGID_12_">
				<use xlink:href="#SVGID_11_"  style="overflow:visible;"/>
			</clipPath>
			<g class="st6">
				<rect x="0" y="322.9" class="st2" width="252.4" height="36.2"/>
			</g>
		</g>
		<g>
			<defs>
				<rect id="SVGID_13_" x="1.1" y="34.3" width="252.4" height="26.9"/>
			</defs>
			<clipPath id="SVGID_14_">
				<use xlink:href="#SVGID_13_"  style="overflow:visible;"/>
			</clipPath>
			<g class="st7">
				<text transform="matrix(0.6818 0 0 1 13.2785 54.6528)" class="st8 st9">100</text>
				<text transform="matrix(0.6818 0 0 1 36.8497 54.6528)" class="st8 st9">%</text>
			</g>
		</g>
		<g>
			<defs>
				<rect id="SVGID_15_" x="1.1" y="63.3" width="252.4" height="26.9"/>
			</defs>
			<clipPath id="SVGID_16_">
				<use xlink:href="#SVGID_15_"  style="overflow:visible;"/>
			</clipPath>
			<g class="st10">
				<text transform="matrix(0.6818 0 0 1 21.2208 83.7129)" class="st8 st9">90</text>
				<text transform="matrix(0.6818 0 0 1 36.9347 83.7129)" class="st8 st9">%</text>
			</g>
		</g>
		<g>
			<defs>
				<rect id="SVGID_17_" x="1.1" y="93.3" width="252.4" height="26.9"/>
			</defs>
			<clipPath id="SVGID_18_">
				<use xlink:href="#SVGID_17_"  style="overflow:visible;"/>
			</clipPath>
			<g class="st11">
				<text transform="matrix(0.6818 0 0 1 21.2208 112.8047)" class="st8 st9">80</text>
				<text transform="matrix(0.6818 0 0 1 36.9347 112.8047)" class="st8 st9">%</text>
			</g>
		</g>
		<g>
			<defs>
				<rect id="SVGID_19_" x="1.1" y="121.2" width="252.4" height="26.9"/>
			</defs>
			<clipPath id="SVGID_20_">
				<use xlink:href="#SVGID_19_"  style="overflow:visible;"/>
			</clipPath>
			<g class="st12">
				<text transform="matrix(0.6818 0 0 1 21.2208 141.8647)" class="st8 st9">70</text>
				<text transform="matrix(0.6818 0 0 1 36.9347 141.8647)" class="st8 st9">%</text>
			</g>
		</g>
		<g>
			<defs>
				<rect id="SVGID_21_" x="1.1" y="150.2" width="252.4" height="26.9"/>
			</defs>
			<clipPath id="SVGID_22_">
				<use xlink:href="#SVGID_21_"  style="overflow:visible;"/>
			</clipPath>
			<g class="st13">
				<text transform="matrix(0.6818 0 0 1 21.2208 170.9301)" class="st8 st9">60</text>
				<text transform="matrix(0.6818 0 0 1 36.9347 170.9301)" class="st8 st9">%</text>
			</g>
		</g>
		<g>
			<defs>
				<rect id="SVGID_23_" x="1.1" y="179.1" width="252.4" height="26.9"/>
			</defs>
			<clipPath id="SVGID_24_">
				<use xlink:href="#SVGID_23_"  style="overflow:visible;"/>
			</clipPath>
			<g class="st14">
				<text transform="matrix(0.6818 0 0 1 21.2208 199.9902)" class="st8 st9">50</text>
				<text transform="matrix(0.6818 0 0 1 36.9347 199.9902)" class="st8 st9">%</text>
			</g>
		</g>
		<g>
			<defs>
				<rect id="SVGID_25_" x="1.1" y="209.1" width="252.4" height="26.9"/>
			</defs>
			<clipPath id="SVGID_26_">
				<use xlink:href="#SVGID_25_"  style="overflow:visible;"/>
			</clipPath>
			<g class="st15">
				<text transform="matrix(0.6818 0 0 1 21.2208 229.0566)" class="st8 st9">40</text>
				<text transform="matrix(0.6818 0 0 1 36.9347 229.0566)" class="st8 st9">%</text>
			</g>
		</g>
		<g>
			<defs>
				<rect id="SVGID_27_" x="1.1" y="238.1" width="252.4" height="26.9"/>
			</defs>
			<clipPath id="SVGID_28_">
				<use xlink:href="#SVGID_27_"  style="overflow:visible;"/>
			</clipPath>
			<g class="st16">
				<text transform="matrix(0.6818 0 0 1 21.2208 258.1152)" class="st8 st9">30</text>
				<text transform="matrix(0.6818 0 0 1 36.9347 258.1152)" class="st8 st9">%</text>
			</g>
		</g>
		<g>
			<defs>
				<rect id="SVGID_29_" x="1.1" y="266" width="252.4" height="26.9"/>
			</defs>
			<clipPath id="SVGID_30_">
				<use xlink:href="#SVGID_29_"  style="overflow:visible;"/>
			</clipPath>
			<g class="st17">
				<text transform="matrix(0.6818 0 0 1 21.2208 287.1758)" class="st8 st9">20</text>
				<text transform="matrix(0.6818 0 0 1 36.9347 287.1758)" class="st8 st9">%</text>
			</g>
		</g>
		<g>
			<defs>
				<rect id="SVGID_31_" x="1.1" y="296" width="252.4" height="26.9"/>
			</defs>
			<clipPath id="SVGID_32_">
				<use xlink:href="#SVGID_31_"  style="overflow:visible;"/>
			</clipPath>
			<g class="st18">
				<text transform="matrix(0.6818 0 0 1 21.2208 316.2793)" class="st8 st9">10</text>
				<text transform="matrix(0.6818 0 0 1 36.9347 316.2793)" class="st8 st9">%</text>
			</g>
		</g>
		<g>
			<defs>
				<rect id="SVGID_33_" x="1.1" y="325" width="252.4" height="34.1"/>
			</defs>
			<clipPath id="SVGID_34_">
				<use xlink:href="#SVGID_33_"  style="overflow:visible;"/>
			</clipPath>
			<g class="st19">
				<text transform="matrix(0.6818 0 0 1 70.9288 351.5381)" class="st8 st20">A</text>
			</g>
		</g>
		<g>
			<defs>
				<rect id="SVGID_35_" x="1.1" y="325" width="252.4" height="34.1"/>
			</defs>
			<clipPath id="SVGID_36_">
				<use xlink:href="#SVGID_35_"  style="overflow:visible;"/>
			</clipPath>
			<g class="st21">
				<text transform="matrix(0.6818 0 0 1 122.2238 351.5381)" class="st8 st20">B</text>
			</g>
		</g>
		<g>
			<defs>
				<rect id="SVGID_37_" x="1.1" y="325" width="252.4" height="34.1"/>
			</defs>
			<clipPath id="SVGID_38_">
				<use xlink:href="#SVGID_37_"  style="overflow:visible;"/>
			</clipPath>
			<g class="st22">
				<text transform="matrix(0.6818 0 0 1 173.2379 351.5381)" class="st8 st20">C</text>
			</g>
		</g>
		<g>
			<defs>
				<rect id="SVGID_39_" x="1.1" y="325" width="252.4" height="34.1"/>
			</defs>
			<clipPath id="SVGID_40_">
				<use xlink:href="#SVGID_39_"  style="overflow:visible;"/>
			</clipPath>
			<g class="st23">
				<text transform="matrix(0.6818 0 0 1 222.4879 351.5381)" class="st8 st20">D</text>
			</g>
		</g>
		<g>
			<defs>
				<rect id="SVGID_41_" x="0" y="-2.9" width="252.4" height="36.2"/>
			</defs>
			<clipPath id="SVGID_42_">
				<use xlink:href="#SVGID_41_"  style="overflow:visible;"/>
			</clipPath>
			<g class="st24">
				<text transform="matrix(0.6818 0 0 1 53.0548 24.56)" class="st25 st26 st20">Ask The</text>
				<text transform="matrix(0.6818 0 0 1 116.0988 24.56)" class="st25 st26 st20"> </text>
				<text transform="matrix(0.6818 0 0 1 120.5626 24.56)" class="st25 st26 st20">Audience</text>
			</g>
		</g>
		<g>
			<defs>
				<rect id="SVGID_43_" x="-1" y="-5" width="256.5" height="368.3"/>
			</defs>
			<clipPath id="SVGID_44_">
				<use xlink:href="#SVGID_43_"  style="overflow:visible;"/>
			</clipPath>
			<g class="st27">
				<line class="st28" x1="0" y1="177.1" x2="51.3" y2="177.1"/>
				<rect x="0" y="178.1" width="51.3" height="1"/>
				<line class="st28" x1="0" y1="207.1" x2="51.3" y2="207.1"/>
				<rect x="0" y="208.1" width="51.3" height="1"/>
				<line class="st28" x1="0" y1="236" x2="51.3" y2="236"/>
				<rect x="0" y="236" width="51.3" height="1"/>
				<line class="st28" x1="0" y1="265" x2="51.3" y2="265"/>
				<rect x="0" y="265" width="51.3" height="1"/>
				<line class="st28" x1="0" y1="294" x2="51.3" y2="294"/>
				<rect x="0" y="294" width="51.3" height="1"/>
				<line class="st28" x1="252.4" y1="-1.9" x2="252.4" y2="34.3"/>
				<rect x="252.4" y="-1.9" width="1" height="36.2"/>
				<line class="st29" x1="101.6" y1="179.1" x2="101.6" y2="324"/>
				<rect x="101.6" y="178.1" class="st25" width="1" height="143.8"/>
				<line class="st29" x1="151.9" y1="266" x2="151.9" y2="324"/>
				<rect x="151.9" y="266" class="st25" width="1" height="56.9"/>
				<line class="st29" x1="203.2" y1="266" x2="203.2" y2="324"/>
				<rect x="203.2" y="266" class="st25" width="1" height="56.9"/>
				<line class="st29" x1="252.4" y1="295" x2="252.4" y2="324"/>
				<rect x="252.4" y="296" class="st25" width="1" height="26.9"/>
				<line class="st28" x1="-1" y1="-2.9" x2="-1" y2="325"/>
				<rect x="-1" y="-2.9" width="1" height="327.9"/>
				<line class="st28" x1="252.4" y1="325" x2="252.4" y2="361.2"/>
				<rect x="252.4" y="325" width="1" height="36.2"/>
				<line class="st28" x1="50.3" y1="34.3" x2="50.3" y2="361.2"/>
				<rect x="50.3" y="34.3" width="1" height="326.9"/>
				<line class="st28" x1="101.6" y1="325" x2="101.6" y2="361.2"/>
				<rect x="101.6" y="325" width="1" height="36.2"/>
				<line class="st28" x1="151.9" y1="325" x2="151.9" y2="361.2"/>
				<rect x="151.9" y="325" width="1" height="36.2"/>
				<line class="st28" x1="203.2" y1="325" x2="203.2" y2="361.2"/>
				<rect x="203.2" y="325" width="1" height="36.2"/>
				<line class="st28" x1="0" y1="-2.9" x2="253.4" y2="-2.9"/>
				<rect x="1.1" y="-2.9" width="252.4" height="1"/>
				<line class="st28" x1="0" y1="32.2" x2="253.4" y2="32.2"/>
				<rect x="1.1" y="33.3" width="252.4" height="1"/>
				<line class="st28" x1="0" y1="61.2" x2="51.3" y2="61.2"/>
				<rect x="0" y="61.2" width="51.3" height="1"/>
				<line class="st28" x1="0" y1="90.2" x2="51.3" y2="90.2"/>
				<rect x="0" y="90.2" width="51.3" height="1"/>
				<line class="st28" x1="0" y1="120.2" x2="51.3" y2="120.2"/>
				<rect x="0" y="120.2" width="51.3" height="1"/>
				<line class="st28" x1="0" y1="149.1" x2="51.3" y2="149.1"/>
				<rect x="0" y="149.1" width="51.3" height="1"/>
				<line class="st29" x1="51.3" y1="177.1" x2="102.6" y2="177.1"/>
				<rect x="51.3" y="178.1" class="st25" width="51.3" height="1"/>
				<line class="st29" x1="51.3" y1="207.1" x2="102.6" y2="207.1"/>
				<rect x="51.3" y="208.1" class="st25" width="51.3" height="1"/>
				<line class="st29" x1="51.3" y1="236" x2="102.6" y2="236"/>
				<rect x="51.3" y="236" class="st25" width="51.3" height="1"/>
				<line class="st29" x1="51.3" y1="265" x2="204.2" y2="265"/>
				<rect x="51.3" y="265" class="st25" width="152.9" height="1"/>
				<line class="st29" x1="51.3" y1="294" x2="253.4" y2="294"/>
				<rect x="51.3" y="294" class="st25" width="202.1" height="1"/>
				<line class="st28" x1="0" y1="324" x2="253.4" y2="324"/>
				<rect x="1.1" y="324" width="252.4" height="1"/>
				<line class="st28" x1="51.3" y1="359.2" x2="253.4" y2="359.2"/>
				<rect x="51.3" y="359.2" width="202.1" height="1"/>
			</g>
		</g>
	</g>
</g>
</svg>
